<svg xmlns="http://www.w3.org/2000/svg" viewBox="0 0 73 70"><path d="M51.9 63c2.4.3 4.4-4.1 5.8-.2" fill="#f8f3d7" fill-rule="evenodd" stroke="#000" stroke-width=".7" stroke-linecap="round" stroke-linejoin="round"/><g stroke-width=".7" fill="#f8f3d7" stroke-linejoin="round" stroke="#000" stroke-linecap="round"><path d="M31.8 47.7c2 13-6.3 13-6.7 16.7 4.4-1.3 9-.2 13.1 0 0-3.5-3.5-10.7-2-16.2" fill-rule="evenodd"/><path d="M38.2 64.5a3.1 3 0 0 1-3.2 3 3.1 3 0 0 1-3-3.1 3.1 3 0 0 1 3.1-3 3.1 3 0 0 1 3.1 3"/><path d="M32.5 65a2.2 3 0 0 1-2.3 2.8 2.2 3 0 0 1-2.2-3 2.2 3 0 0 1 2.3-2.9 2.2 3 0 0 1 2.2 3"/><path d="M28.8 64.7a2 2 0 0 1-2 2 2 2 0 0 1-1.8-2 2 2 0 0 1 2-2.1 2 2 0 0 1 1.8 2"/></g><path d="M54.5 63.3c2.1-1 3.1-3.2 4.5-.8" fill="#f8f3d7" fill-rule="evenodd" stroke="#000" stroke-width=".7" stroke-linecap="round" stroke-linejoin="round"/><path d="M40.7 48c1.5 6.9.4 12.3-.4 17-.4 2 .9 2.6 2.2 2.4 3.8-.7 11 .2 12-.2 3.4-1.2 5.5 1 6.2-.7.7-1.6.1-6.4-1.9-4.5a4 4 0 0 1-1.4 1c-6.2 1.9-13.7-6.5-13-16.6" fill="#f8f3d7" fill-rule="evenodd" stroke="#000" stroke-width=".7" stroke-linejoin="round"/><path d="M52 31a14.4 19 0 0 1-14.7 18.6 14.4 19 0 0 1-14-19.4 14.4 19 0 0 1 14.4-18.7A14.4 19 0 0 1 52 30.6"/><path d="M57.5 62.9c.3 1.2.4 1.8 1.4 1.5 1.3-.4 1-1.1 0-2.5-.4.4-.8.8-1.4 1z" fill="#fff" fill-rule="evenodd" stroke="#000" stroke-width=".7" stroke-linejoin="round"/><path d="M45.2 61c-1.4 1.4-3 3.5.1 4.4" fill="#f8f3d7" fill-rule="evenodd" stroke="#000" stroke-width=".7" stroke-linecap="round" stroke-linejoin="round"/><path d="M52.1 49C50 43 26.5 7.5 26.7 7.5M21.8 13.3c3.6 8.6 36 26.1 36.3 26.1M19.7 31.9L59 35.7M25.2 48.3c3.2-.4 26.7-29.8 27-29.8M26.9 49.4c.3-.1 27.3-36 27.6-36M16.1 23.6l43.7 9.2M19.2 43.6c.3 0 32.2-33 36.2-33M28 51.2c.4 0 18.9-38 27-38.8M40.6 54.7c.3 0-3.1-49.8-2.8-49.8M31.7 2.9c.5 6.4 15.7 50 16 50M19.1 31.4c2.2-2.7 39.8-11.8 40-11.9M19.5 39.1c.4 0 37.7-21.3 38-21.3M20.7 44.2c7.7-3.8 30.4-33.6 30.7-33.6M18.9 16.5c.4 0 37.5 27.2 37.8 27.2M18.3 28c.3 0 40.1 2.3 39.5-.5M50.1 45.8c.4-.1-24.7-34.6-24.4-34.6M16 19.8c.4 0 41.1 15.4 41.4 15.4M28 10.4c3.2 10.2 20.2 23.3 26.2 28.7M24.7 13.7C24 16 55.7 37.2 56 37.2M29.8 5c.4-.1 14.9 47.6 12.3 48.6M39.6 51.4c.4 0-3.2-42.9-2.9-42.9M15.6 26c-5.9-1.6 36.1-1.5 37.5-3.7M17.4 36.6L56.2 31M16.6 21.5c1-.6 37 8.6 37.4 8.6M33.7 50.9c.4 0 3-42.4-1.4-48.5M44 50.7c.3 0-4.4-38.4-1-44.6M34.4 8C32.5 3 39 32.1 57.2 42.6M49.7 7.5c.3 0-26 36.5-29 35.6M51.5 8c.3-.1-25.7 40.7-28.2 38.9M32.8 55c.8-.7 1.2-61.4.5-50.6M28.3 5.5c-2 3.7 23.8 40 24 40M24.7 50.5C27 50.6 46.9 5.7 47 5.7M19.1 33c5.4.2 33.7-16.3 34-16.3M15.7 36c1 .7 39.5-9.7 39.8-9.7M58.7 24c.4 0-39 18.5-41 16.5M16.4 32.5c-6.4-.4 36.2-13.7 40-19.5M59 29.5c.4 0-41-6.4-40.7-6.5M23.6 10.2c.3-.1 26.7 37.8 27 37.8M57.1 20.7c.4 0-35 26.5-37.7 24M40.6 3.6C40 5.9 38.3 53 38.6 53M21.2 10.8c.3-.1 29 41.3 29.3 41.3M31.2 53.4c1.3-3.7 13-49.1 14-49.1M54 47c.4 0-16.4-35-17.3-41.5M22 50c.3 0 34.8-33.7 35-33.7M46.1 53c.4-.1-8.6-46.6-7.2-49.2M17.8 43c.4-.1 37.3-32.3 37.6-32.3M55.2 42c.4 0-33.9-21-37.4-25M20.7 13.3c.4 0 29.4 36.6 29.7 36.6M14 24.5l45.4 9.3M35.3 3c.4 0 2 52 2.2 52M34 53.2c.1-.8 14.8-48.8 15-48.8M39.5 54.7c.4 0 13.8-47.9 14.1-47.9M56.9 46.3c.3 0-39.2-32.4-39-32.4M48.2 51.2c.4 0-24.5-45.1-24.2-45.1M13.4 18.1c10.9-.2 44.5 22.4 44.7 22.4M57.5 18.9c.3 0-42.7 8-41.9 9M26 5c2.8-.1 28 45.6 28.2 45.6M43.7 53.1C44.1 53.1 30 3.2 31 2.8M29.1 52.2c.4 0 13.3-42.7 12.9-47.6M26.2 51.5c.4 0 31-37.8 31.3-37.8M20.4 46.8c3.4-1.4 38-25.4 38.3-25.5M16.4 38.4c.5 0 42.2-12 42.4-12M59.7 36.8c.3 0-41.5-8.3-44.3-6.7M16.2 34.2c.6-.4 43.3-2.4 43.6-2.4" fill="none" stroke="#000" stroke-width=".7" stroke-linecap="round"/><g fill-rule="evenodd"><path d="M39.4 28.4c-5.1 4.8-9.1 1.2-9.2-3.7 0-4.9 3.2-10.3 7.3-6.8 5-4.4 9.3 1.2 9.5 6 .2 2.9-2 10-7.6 4.5z" fill="#fff"/><path d="M39.2 26.9c-1.3 1.3-2.4.3-2.4-1 0-1.4.8-2.8 2-1.9 1.3-1.2 2.4.4 2.4 1.6 0 .8-.5 2.8-2 1.3z"/></g><g stroke="#000"><path d="M31.1 44.5a34.7 34.7 0 0 0 15.7.2c.3-4.2 0-9 .2-13.9-3.7 2.9-12.3 2.6-16.2 1.1 0 4.7.6 10 .3 12.6z" fill="#fff" fill-rule="evenodd" stroke-width=".3"/><path d="M34.3 32.1c.5 3.8-.2 10 1.1 14.2M30.1 36.9c6.2 3.3 12.2 2.9 17.9.7M39 32.2c.5 3.8-.3 9.3.2 14M43.5 31.8c0 4.2-.5 11.1-.9 14.4" fill="none" stroke-width=".7"/></g></svg>
